<?xml version="1.0" encoding="UTF-8"?>
<svg id="Layer_1" data-name="Layer 1" xmlns="http://www.w3.org/2000/svg" version="1.1" viewBox="0 0 534.5 78.2">
  <defs>
    <style>
      .cls-1 {
        fill: #000;
      }

      .cls-1, .cls-2, .cls-3 {
        stroke-width: 0px;
      }

      .cls-2 {
        fill: #1a5632;
      }

      .cls-3 {
        fill: #231f20;
      }
    </style>
  </defs>
  <g>
    <path class="cls-3" d="M222.6,18.3h-6.1v-3.2h15.8v3.2h-6.1v16.2h-3.6v-16.2Z"/>
    <path class="cls-3" d="M234.6,15.1h3.4v7.1c.7-.8,1.4-1.4,2.2-1.8.8-.3,1.5-.5,2.4-.5,1.6,0,2.7.4,3.5,1.3.8.9,1.2,2.1,1.2,3.8v9.4h-3.4v-8.8c0-1-.2-1.8-.6-2.2-.4-.4-1-.7-1.8-.7s-.9,0-1.3.2c-.4.2-.8.4-1.2.8-.3.3-.6.6-.8,1s-.3.8-.3,1.4v8.3h-3.4V15.1Z"/>
    <path class="cls-3" d="M250.1,27.5c0-1.6.3-3,.9-4.1.6-1.1,1.4-2,2.4-2.6,1-.6,2.2-.9,3.6-.9s2.7.3,3.6.9c1,.6,1.7,1.4,2.1,2.5.5,1,.7,2.3.7,3.7v1.3h-10c0,1.4.4,2.4,1,3.1.6.7,1.4,1.1,2.5,1.1s1.7-.2,2.1-.5c.5-.4.8-.9.9-1.5h3.2c-.2,1.4-.9,2.6-1.9,3.4-1,.8-2.5,1.2-4.4,1.2s-3.9-.6-5.1-1.9c-1.2-1.3-1.8-3.1-1.8-5.4ZM259.4,23.4c-.5-.6-1.3-1-2.4-1s-2,.3-2.5,1c-.5.7-.8,1.6-.9,2.7h6.7c0-1.2-.3-2.1-.8-2.7Z"/>
    <path class="cls-3" d="M272.4,26.6v-11.5h3.6v11.6c0,1.7.3,3,1,3.8.6.9,1.7,1.3,3.1,1.3s2.5-.4,3.1-1.3c.6-.8.9-2.1.9-3.8v-11.6h3.6v11.6c0,2.9-.7,5-2,6.3-1.3,1.3-3.2,2-5.7,2s-4.4-.7-5.7-2c-1.3-1.3-2-3.5-2-6.4Z"/>
    <path class="cls-3" d="M291,20.4h3.3v2c.7-.9,1.4-1.5,2.2-1.9s1.6-.5,2.4-.5c1.6,0,2.7.4,3.5,1.3s1.2,2.1,1.2,3.8v9.4h-3.4v-8.8c0-1-.2-1.8-.6-2.2s-1-.7-1.8-.7-.9,0-1.3.2c-.4.2-.8.4-1.2.8-.3.3-.6.6-.8,1-.2.4-.3.8-.3,1.4v8.3h-3.4v-14.1Z"/>
    <path class="cls-3" d="M306.9,15.1h3.4v3.1h-3.4v-3.1ZM306.9,20.4h3.4v14.1h-3.4v-14.1Z"/>
    <path class="cls-3" d="M319.5,31l3.6-10.6h3.6l-5.4,14.1h-3.6l-5.4-14.1h3.8l3.5,10.6Z"/>
    <path class="cls-3" d="M327.6,27.5c0-1.6.3-3,.9-4.1.6-1.1,1.4-2,2.4-2.6,1-.6,2.2-.9,3.6-.9s2.7.3,3.6.9c1,.6,1.7,1.4,2.1,2.5.5,1,.7,2.3.7,3.7v1.3h-10c0,1.4.4,2.4,1,3.1.6.7,1.4,1.1,2.5,1.1s1.7-.2,2.1-.5c.5-.4.8-.9,1-1.5h3.2c-.2,1.4-.9,2.6-1.9,3.4-1,.8-2.5,1.2-4.4,1.2s-3.9-.6-5.1-1.9c-1.2-1.3-1.8-3.1-1.8-5.4ZM336.9,23.4c-.5-.6-1.3-1-2.4-1s-2,.3-2.5,1c-.5.7-.8,1.6-.9,2.7h6.7c0-1.2-.3-2.1-.8-2.7Z"/>
    <path class="cls-3" d="M343.8,20.4h3.3v2c1-1.5,2.4-2.2,4-2.2s.5,0,.7,0c.2,0,.4,0,.6,0l-.4,3c-.4-.1-.8-.2-1.3-.2s-.9,0-1.3.2-.8.4-1.2.7c-.4.3-.6.6-.9,1.1-.2.4-.3.9-.3,1.5v8h-3.4v-14.1Z"/>
    <path class="cls-3" d="M362.9,30.6c0-.5-.1-.9-.4-1.2-.3-.3-.8-.6-1.7-.7l-1.7-.3c-1.7-.3-3-.7-3.8-1.4-.8-.6-1.3-1.6-1.3-2.9s.5-2.4,1.6-3.1c1.1-.8,2.5-1.1,4.3-1.1s2.4.2,3.2.5c.8.3,1.5.8,1.9,1.4s.7,1.3.9,2.1l-3.1.4c-.2-.7-.5-1.1-.9-1.5s-1.1-.5-2-.5-1.7.2-2.1.5c-.4.3-.6.7-.6,1.2s.1.8.4,1.1c.3.3.9.5,1.8.6l1.9.3c1.8.3,3,.8,3.8,1.5.7.7,1.1,1.6,1.1,2.9s-.5,2.4-1.5,3.1-2.5,1.2-4.5,1.2-3.4-.4-4.6-1.1c-1.2-.7-1.8-1.9-2-3.6h3.3c.1.8.5,1.4,1,1.7.5.3,1.3.5,2.2.5s1.6-.2,2.1-.5c.4-.3.6-.8.6-1.3Z"/>
    <path class="cls-3" d="M368.7,15.1h3.4v3.1h-3.4v-3.1ZM368.7,20.4h3.4v14.1h-3.4v-14.1Z"/>
    <path class="cls-3" d="M376.5,29.6v-6.5h-2.2v-2.7h2.2v-3.8h3.4v3.8h3.5v2.7h-3.5v6.9c0,.6.1,1.1.4,1.5.3.4.7.5,1.3.5s.7,0,.9,0c.3,0,.5-.1.8-.2l.5,2.6c-.5.1-.9.3-1.4.4-.5,0-1,.1-1.6.1-1.1,0-2-.2-2.6-.6-.6-.4-1.1-1-1.3-1.8-.3-.8-.4-1.7-.4-2.8Z"/>
    <path class="cls-3" d="M386.5,37c.6.2,1.1.3,1.6.3s1-.2,1.3-.5.6-.9.9-1.8l.5-1.3-5.9-13.4h3.8l3.7,9.8,3.4-9.8h3.6l-6,14.9c-.4,1.1-.9,2-1.3,2.7-.4.7-.9,1.2-1.4,1.5-.5.3-1.2.5-2.1.5s-1.8-.1-2.7-.4l.6-2.6Z"/>
    <path class="cls-3" d="M406.7,27.5c0-1.6.3-2.9.9-4,.6-1.1,1.4-2,2.5-2.6,1.1-.6,2.3-.9,3.8-.9,2.2,0,3.9.7,5.2,2,1.2,1.3,1.8,3.1,1.8,5.4s-.6,4.2-1.9,5.5-3,2-5.2,2-3.9-.7-5.2-2c-1.2-1.3-1.8-3.1-1.8-5.5ZM410.2,27.4c0,1.4.3,2.6.8,3.4s1.4,1.3,2.7,1.3,2.1-.4,2.7-1.3c.6-.9.8-2,.8-3.4s-.3-2.6-.8-3.4c-.6-.9-1.5-1.3-2.7-1.3s-2.1.4-2.7,1.3c-.6.8-.8,2-.8,3.4Z"/>
    <path class="cls-3" d="M424.7,23.3h-2.3v-2.7h2.3v-.9c0-1.6.4-2.8,1.3-3.6.9-.8,2-1.2,3.4-1.2s1.9.1,2.8.4l-.5,2.5c-.3,0-.6-.1-.8-.2-.3,0-.5,0-.8,0-.6,0-1.1.2-1.5.5-.4.3-.6.8-.6,1.6v1h3.4v2.7h-3.4v11.2h-3.4v-11.2Z"/>
    <path class="cls-3" d="M220,62.9h-3.7l7.2-19.4h4.2l7.1,19.4h-3.8l-1.7-4.7h-7.7l-1.7,4.7ZM225.5,46.9l-2.9,8.3h5.8l-2.9-8.3Z"/>
    <path class="cls-3" d="M236.9,43.5h3.4v19.4h-3.4v-19.4Z"/>
    <path class="cls-3" d="M242.9,59c0-.9.2-1.7.6-2.3.4-.6.9-1.1,1.6-1.5.7-.4,1.4-.6,2.3-.8.9-.2,1.8-.2,2.7-.3h2.2v-.6c0-1-.2-1.7-.6-2.1-.4-.4-1.1-.7-2-.7s-1.6.2-2,.5c-.4.3-.7.8-.9,1.3l-3.1-.3c.3-1.4.9-2.4,1.9-3,1-.6,2.4-1,4.2-1s3.6.5,4.5,1.4c.9.9,1.3,2.3,1.3,4.1v9h-3.2v-1.7c-.5.6-1.2,1.1-1.9,1.5-.7.4-1.6.6-2.7.6s-2.6-.4-3.5-1.1c-.9-.7-1.3-1.8-1.3-3.2ZM246.2,58.8c0,.6.2,1,.5,1.4.4.4.9.5,1.8.5s2-.3,2.7-.9c.7-.6,1-1.4,1-2.4v-1.2h-2c-1.5.1-2.6.4-3.2.8s-.9,1-.9,1.8Z"/>
    <path class="cls-3" d="M262,62.9h-3.3v-19.4h3.4v6.9c.5-.7,1.2-1.2,1.9-1.5s1.5-.5,2.5-.5c2,0,3.4.7,4.4,2,1,1.3,1.5,3.1,1.5,5.3s-.2,2.9-.7,4.1c-.5,1.1-1.2,2-2.1,2.6-.9.6-2,.9-3.3.9s-1.6-.2-2.3-.5c-.7-.3-1.4-.9-1.9-1.6v1.7ZM262,55.3v.8c0,1.5.3,2.6.9,3.3.6.7,1.4,1.1,2.5,1.1s1.8-.4,2.4-1.1c.6-.7.9-2,.9-3.7s-.1-2.1-.4-2.8c-.3-.7-.7-1.2-1.2-1.5-.5-.3-1-.4-1.6-.4-1,0-1.9.4-2.5,1.1-.7.7-1,1.8-1,3.1Z"/>
    <path class="cls-3" d="M273.8,59c0-.9.2-1.7.6-2.3.4-.6.9-1.1,1.6-1.5.7-.4,1.4-.6,2.3-.8s1.8-.2,2.7-.3h2.2v-.6c0-1-.2-1.7-.6-2.1-.4-.4-1.1-.7-2-.7s-1.6.2-2,.5c-.4.3-.7.8-.9,1.3l-3.1-.3c.3-1.4.9-2.4,1.9-3,1-.6,2.4-1,4.2-1s3.6.5,4.5,1.4c.9.9,1.3,2.3,1.3,4.1v9h-3.2v-1.7c-.5.6-1.2,1.1-1.9,1.5-.7.4-1.6.6-2.7.6s-2.6-.4-3.5-1.1c-.9-.7-1.3-1.8-1.3-3.2ZM277.1,58.8c0,.6.2,1,.5,1.4.4.4.9.5,1.8.5s2-.3,2.7-.9c.7-.6,1-1.4,1-2.4v-1.2h-2c-1.5.1-2.6.4-3.2.8-.6.4-.9,1-.9,1.8Z"/>
    <path class="cls-3" d="M289.7,48.8h3.3v1.9c.6-.8,1.3-1.4,2-1.8s1.5-.6,2.3-.6,1.8.2,2.4.6c.7.4,1.1,1,1.5,1.8,1.2-1.6,2.7-2.4,4.6-2.4s2.5.4,3.2,1.2c.8.8,1.1,2,1.1,3.7v9.7h-3.4v-9.1c0-1-.2-1.7-.5-2-.3-.4-.8-.6-1.5-.6s-.7,0-1.1.2-.7.3-1.1.7c-.3.3-.5.6-.7.9-.2.3-.3.7-.3,1.2v8.8h-3.4v-9.1c0-1-.2-1.6-.5-2-.3-.4-.8-.6-1.5-.6s-1.5.3-2.2,1c-.2.2-.5.5-.7.9-.2.4-.3.8-.3,1.4v8.4h-3.4v-14.1Z"/>
    <path class="cls-3" d="M312.6,59c0-.9.2-1.7.6-2.3.4-.6.9-1.1,1.6-1.5.7-.4,1.4-.6,2.3-.8s1.8-.2,2.7-.3h2.2v-.6c0-1-.2-1.7-.6-2.1-.4-.4-1.1-.7-2-.7s-1.6.2-2,.5c-.4.3-.7.8-.9,1.3l-3.1-.3c.3-1.4.9-2.4,1.9-3,1-.6,2.4-1,4.2-1s3.6.5,4.5,1.4c.9.9,1.3,2.3,1.3,4.1v9h-3.2v-1.7c-.5.6-1.2,1.1-1.9,1.5-.7.4-1.6.6-2.7.6s-2.6-.4-3.5-1.1c-.9-.7-1.3-1.8-1.3-3.2ZM315.9,58.8c0,.6.2,1,.5,1.4.4.4.9.5,1.8.5s2-.3,2.7-.9c.7-.6,1-1.4,1-2.4v-1.2h-2c-1.5.1-2.6.4-3.2.8-.6.4-.9,1-.9,1.8Z"/>
    <path class="cls-3" d="M333.6,59c0-.9.2-1.7.6-2.3.4-.6.9-1.1,1.6-1.5.7-.4,1.4-.6,2.3-.8s1.8-.2,2.7-.3h2.2v-.6c0-1-.2-1.7-.6-2.1-.4-.4-1.1-.7-2-.7s-1.6.2-2,.5c-.4.3-.7.8-.9,1.3l-3.1-.3c.3-1.4.9-2.4,1.9-3,1-.6,2.4-1,4.2-1s3.6.5,4.5,1.4c.9.9,1.3,2.3,1.3,4.1v9h-3.2v-1.7c-.5.6-1.2,1.1-1.9,1.5-.7.4-1.6.6-2.7.6s-2.6-.4-3.5-1.1c-.9-.7-1.3-1.8-1.3-3.2ZM336.9,58.8c0,.6.2,1,.5,1.4.4.4.9.5,1.8.5s2-.3,2.7-.9c.7-.6,1-1.4,1-2.4v-1.2h-2c-1.5.1-2.6.4-3.2.8-.6.4-.9,1-.9,1.8Z"/>
    <path class="cls-3" d="M350.1,58v-6.5h-2.2v-2.7h2.2v-3.8h3.4v3.8h3.5v2.7h-3.5v6.9c0,.6.1,1.1.4,1.5.3.4.7.5,1.3.5s.7,0,.9,0c.3,0,.5-.1.8-.2l.5,2.6c-.5.1-.9.3-1.4.4-.5,0-1,.1-1.6.1-1.1,0-2-.2-2.6-.6-.6-.4-1.1-1-1.3-1.8-.3-.8-.4-1.7-.4-2.8Z"/>
    <path class="cls-3" d="M365.7,43.5h7.2c1.7,0,3.1.2,4.1.6,1,.4,1.7,1,2.1,1.8.4.7.6,1.6.6,2.6s-.2,1.7-.6,2.4-1.1,1.3-2,1.8c1.2.5,2,1.1,2.5,1.9.5.8.7,1.7.7,2.7s-.2,2.1-.7,2.9c-.5.8-1.3,1.5-2.3,2s-2.4.7-4.1.7h-7.5v-19.4ZM375.5,46.9c-.6-.4-1.5-.6-2.9-.6h-3.4v5.1h3.7c1.2,0,2.1-.2,2.6-.7.5-.4.8-1.1.8-2s-.3-1.5-.8-1.9ZM376.9,57.1c0-1-.3-1.7-.9-2.3-.6-.5-1.5-.8-2.9-.8h-4v5.9h3.8c1.5,0,2.5-.3,3.1-.8.5-.5.8-1.2.8-2.2Z"/>
    <path class="cls-3" d="M383.1,43.4h3.4v3.1h-3.4v-3.1ZM383.1,48.8h3.4v14.1h-3.4v-14.1Z"/>
    <path class="cls-3" d="M389.9,48.8h3.3v2c1-1.5,2.4-2.2,4-2.2s.5,0,.7,0c.2,0,.4,0,.6,0l-.4,3c-.4-.1-.8-.2-1.3-.2s-.9,0-1.3.2-.8.4-1.2.7c-.4.3-.6.6-.9,1.1-.2.4-.3.9-.3,1.5v8h-3.4v-14.1Z"/>
    <path class="cls-3" d="M400.6,48.8h3.3v1.9c.6-.8,1.3-1.4,2-1.8s1.5-.6,2.3-.6,1.8.2,2.4.6c.7.4,1.1,1,1.5,1.8,1.2-1.6,2.7-2.4,4.6-2.4s2.5.4,3.2,1.2c.8.8,1.1,2,1.1,3.7v9.7h-3.4v-9.1c0-1-.2-1.7-.5-2-.3-.4-.8-.6-1.5-.6s-.7,0-1.1.2-.7.3-1.1.7c-.3.3-.5.6-.7.9-.2.3-.3.7-.3,1.2v8.8h-3.4v-9.1c0-1-.2-1.6-.5-2-.3-.4-.8-.6-1.5-.6s-1.5.3-2.2,1c-.2.2-.5.5-.7.9-.2.4-.3.8-.3,1.4v8.4h-3.4v-14.1Z"/>
    <path class="cls-3" d="M424.4,43.4h3.4v3.1h-3.4v-3.1ZM424.4,48.8h3.4v14.1h-3.4v-14.1Z"/>
    <path class="cls-3" d="M431.2,48.8h3.3v2c.7-.9,1.4-1.5,2.2-1.9s1.6-.5,2.4-.5c1.6,0,2.7.4,3.5,1.3s1.2,2.1,1.2,3.8v9.4h-3.4v-8.8c0-1-.2-1.8-.6-2.2s-1-.7-1.8-.7-.9,0-1.3.2c-.4.2-.8.4-1.2.8-.3.3-.6.6-.8,1-.2.4-.3.8-.3,1.4v8.3h-3.4v-14.1Z"/>
    <path class="cls-3" d="M456.7,61.6v-1.4c-.5.7-1.1,1.2-1.9,1.6-.7.4-1.6.6-2.5.6s-2.4-.3-3.3-.9c-.9-.6-1.5-1.4-1.9-2.5-.4-1.1-.6-2.3-.6-3.6s.2-2.7.7-3.7c.5-1.1,1.2-1.9,2.1-2.5.9-.6,2-.9,3.2-.9s1.6.1,2.3.4c.7.3,1.4.8,2,1.6v-1.6h3.3v12c0,1.6-.2,3-.6,4.1-.4,1.1-1.1,2-2,2.6-1,.6-2.3.9-4,.9s-3.5-.4-4.6-1.1c-1.1-.7-1.7-1.9-1.9-3.5h3.3c.1.7.5,1.2.9,1.6s1.2.5,2.2.5,2.1-.4,2.5-1.1c.5-.7.7-1.8.7-3.2ZM455.9,52.2c-.5-.8-1.4-1.1-2.6-1.1s-1.8.3-2.4,1c-.6.7-1,1.8-1,3.3s.2,1.9.5,2.5.7,1.1,1.2,1.4c.5.3,1,.4,1.6.4,1.2,0,2-.4,2.6-1.1s.9-1.7.9-2.9v-.4c0-1.2-.3-2.2-.8-3Z"/>
    <path class="cls-3" d="M463.3,43.5h3.4v7.1c.7-.8,1.4-1.4,2.2-1.8.8-.3,1.5-.5,2.4-.5,1.6,0,2.7.4,3.5,1.3s1.2,2.1,1.2,3.8v9.4h-3.4v-8.8c0-1-.2-1.8-.6-2.2s-1-.7-1.8-.7-.9,0-1.3.2c-.4.2-.8.4-1.2.8-.3.3-.6.6-.8,1-.2.4-.3.8-.3,1.4v8.3h-3.4v-19.4Z"/>
    <path class="cls-3" d="M478.3,59c0-.9.2-1.7.6-2.3.4-.6.9-1.1,1.6-1.5.7-.4,1.4-.6,2.3-.8s1.8-.2,2.7-.3h2.2v-.6c0-1-.2-1.7-.6-2.1-.4-.4-1.1-.7-2-.7s-1.6.2-2,.5c-.4.3-.7.8-.9,1.3l-3.1-.3c.3-1.4.9-2.4,1.9-3,1-.6,2.4-1,4.2-1s3.6.5,4.5,1.4c.9.9,1.3,2.3,1.3,4.1v9h-3.2v-1.7c-.5.6-1.2,1.1-1.9,1.5-.7.4-1.6.6-2.7.6s-2.6-.4-3.5-1.1c-.9-.7-1.3-1.8-1.3-3.2ZM481.7,58.8c0,.6.2,1,.5,1.4.4.4.9.5,1.8.5s2-.3,2.7-.9c.7-.6,1-1.4,1-2.4v-1.2h-2c-1.5.1-2.6.4-3.2.8-.6.4-.9,1-.9,1.8Z"/>
    <path class="cls-3" d="M494,48.8h3.3v1.9c.6-.8,1.3-1.4,2-1.8s1.5-.6,2.3-.6,1.8.2,2.4.6c.7.4,1.1,1,1.5,1.8,1.2-1.6,2.7-2.4,4.6-2.4s2.5.4,3.2,1.2c.8.8,1.1,2,1.1,3.7v9.7h-3.4v-9.1c0-1-.2-1.7-.5-2-.3-.4-.8-.6-1.5-.6s-.7,0-1.1.2-.7.3-1.1.7c-.3.3-.5.6-.7.9-.2.3-.3.7-.3,1.2v8.8h-3.4v-9.1c0-1-.2-1.6-.5-2-.3-.4-.8-.6-1.5-.6s-1.5.3-2.2,1c-.2.2-.5.5-.7.9-.2.4-.3.8-.3,1.4v8.4h-3.4v-14.1Z"/>
  </g>
  <g>
    <path class="cls-2" d="M65.1,62.9c5.6,0,11-5.4,11-10.9s0-37,0-37h-16.7v29.7c0,1.2-1.3,3.6-3.6,3.6h-19.6c-2.3,0-3.6-2.4-3.6-3.6V15H15.8s0,35.8,0,37c0,5.5,5.3,10.9,11,10.9h38.3Z"/>
    <path class="cls-2" d="M118.1,15h-19.2l-26.3,47.9h19.5l3.6-7.5h25.5l3.6,7.5h19.5l-26.3-47.9ZM102.2,42.3l6.3-13,6.3,13h-12.7Z"/>
    <path class="cls-2" d="M145.5,15.1h43c9.8,0,14.1,4.3,14.1,11.9s-2.1,7.9-5.7,9.3h0c6.2,1.7,8.2,7.5,8.2,11.1,0,9.4-4.7,15.5-18.7,15.5h-40.9V15.1ZM164,32.9h14.3c3.8,0,4.7-1.3,4.7-3.1s-.9-3-4.7-3h-14.3v6.2ZM164,51.3h16.1c3.8,0,4.9-1.6,4.9-3.8s-1.1-3.8-4.9-3.8h-16.1v7.5Z"/>
  </g>
  <path class="cls-3" d="M316.6,114.5c.2,0,.3.1.3.3s-.1.3-.3.3-.3-.1-.3-.3.1-.3.3-.3ZM316.6,115.1c.1,0,.2-.1.2-.2s-.1-.2-.2-.2-.2.1-.2.2.1.2.2.2ZM316.5,115h0v-.3h.1c0,0,.1,0,.1,0s0,0,0,0h0c0,.1,0,.1,0,.1h0c0-.1,0-.1,0-.1h0ZM316.5,114.8h0s0,0,0,0,0,0,0,0h0Z"/>
  <path class="cls-1" d="M519.1,59.2c1.1,0,2,.9,2,2s-.9,2-2,2-2-.9-2-2,.9-2,2-2ZM519.1,62.8c.9,0,1.7-.7,1.7-1.7s-.7-1.7-1.7-1.7-1.7.7-1.7,1.7.7,1.7,1.7,1.7ZM518.7,62.3h-.3v-2.3h.9c.5,0,.7.2.7.6s-.3.6-.6.6l.7,1h-.3l-.7-1h-.4v1ZM518.7,61h.4c.3,0,.6,0,.6-.4s-.3-.4-.5-.4h-.5v.8Z"/>
</svg>